<?xml version="1.0" encoding="UTF-8"?>
<svg version="1.1" xmlns="http://www.w3.org/2000/svg" width="80" height="90">
<path d="M0 0 C26.4 0 52.8 0 80 0 C80 29.7 80 59.4 80 90 C53.6 90 27.2 90 0 90 C0 60.3 0 30.6 0 0 Z " fill="#F4F4F4" transform="translate(0,0)"/>
<path d="M0 0 C26.4 0 52.8 0 80 0 C80.020625 8.971875 80.04125 17.94375 80.0625 27.1875 C80.071604 30.0133667 80.08070801 32.8392334 80.09008789 35.75073242 C80.09300889 37.99397738 80.09555701 40.23722287 80.09765625 42.48046875 C80.10277222 43.64243774 80.10788818 44.80440674 80.11315918 46.00158691 C80.11334045 47.67565613 80.11334045 47.67565613 80.11352539 49.38354492 C80.115746 50.34951096 80.11796661 51.31547699 80.12025452 52.31071472 C80.00125869 54.9718515 79.59468968 57.40726491 79 60 C78.26885986 60.0093457 77.53771973 60.01869141 76.78442383 60.02832031 C73.45977282 60.08212664 70.13651322 60.16575504 66.8125 60.25 C65.08676758 60.27126953 65.08676758 60.27126953 63.32617188 60.29296875 C62.21435547 60.32519531 61.10253906 60.35742188 59.95703125 60.390625 C58.42526245 60.4220459 58.42526245 60.4220459 56.86254883 60.45410156 C53.31893571 61.12988143 51.64574072 62.60650758 49 65 C44.51978858 67.73162405 40.10951916 67.62983287 35 67 C29.6768257 65.22896281 26.64981325 61.87565638 24 57 C24 56.34 24 55.68 24 55 C38.19 55 52.38 55 67 55 C66.07484896 39.77955288 66.07484896 39.77955288 57.75 28.625 C50.9567555 23.37699995 43.59071052 22.3576025 35.1484375 22.59375 C27.49150266 23.58174159 22.2379785 27.96531152 17.44140625 33.796875 C15.11478512 37.35301137 14.08766408 40.90526463 13 45 C8.71 45 4.42 45 0 45 C0 30.15 0 15.3 0 0 Z " fill="#BA373A" transform="translate(0,0)"/>
<path d="M0 0 C4.29 0 8.58 0 13 0 C13.556875 1.52625 14.11375 3.0525 14.6875 4.625 C17.71687479 12.05692638 21.5939129 16.68902787 28.91796875 20.08203125 C36.26733695 22.27100657 45.70106634 22.56326282 52.75 19.25 C55.96021552 17.25294765 55.96021552 17.25294765 57.71875 14.875 C60.91402987 12.24874257 63.81505774 12.55660019 67.75 12.75 C68.79607422 12.77707031 68.79607422 12.77707031 69.86328125 12.8046875 C71.57611539 12.85161446 73.28823824 12.92335395 75 13 C71.36377857 22.64248003 63.53423539 28.60760552 54.3125 32.875 C47.52911128 35.1787924 40.76913233 35.13709216 33.69140625 35.09765625 C32.72468491 35.0962413 31.75796356 35.09482635 30.76194763 35.09336853 C27.69543268 35.08780221 24.62899262 35.07525599 21.5625 35.0625 C19.47461043 35.05748065 17.38671972 35.0529185 15.29882812 35.04882812 C10.19916717 35.03869769 5.09966673 35.01911579 0 35 C0 23.45 0 11.9 0 0 Z " fill="#4F4F51" transform="translate(0,55)"/>
<path d="M0 0 C26.4 0 52.8 0 80 0 C80 13.86 80 27.72 80 42 C78.89380928 39.78761856 77.80740803 37.56366869 76.80859375 35.30078125 C71.79911768 24.38269239 65.65532033 17.51909416 54.48046875 12.875 C44.25927696 9.26941423 32.1837949 9.74101967 22.19921875 13.83203125 C19.93138057 14.96229037 19.93138057 14.96229037 17.83203125 16.63671875 C16 18 16 18 14 18 C12.1084693 15.78581383 10.32350321 13.56433016 8.5625 11.25 C8.07201172 10.61578125 7.58152344 9.9815625 7.07617188 9.328125 C4.69094016 6.23794626 2.34229842 3.12306457 0 0 Z " fill="#F6F4F4" transform="translate(0,0)"/>
<path d="M0 0 C0.33 0 0.66 0 1 0 C1 11.55 1 23.1 1 35 C-10.88 35 -22.76 35 -35 35 C-35 34.67 -35 34.34 -35 34 C-33.081875 33.6596875 -33.081875 33.6596875 -31.125 33.3125 C-19.6080581 30.73705788 -11.38547834 24.66999544 -5.1015625 14.79296875 C-4.73804687 14.20128906 -4.37453125 13.60960938 -4 13 C-6.45933991 13.11369211 -8.9167909 13.24042651 -11.375 13.375 C-12.42300781 13.42140625 -12.42300781 13.42140625 -13.4921875 13.46875 C-17.70185827 13.59499498 -17.70185827 13.59499498 -21 16 C-23.3828125 15.9765625 -23.3828125 15.9765625 -26.125 15.625 C-27.03507812 15.51414062 -27.94515625 15.40328125 -28.8828125 15.2890625 C-29.58148438 15.19367188 -30.28015625 15.09828125 -31 15 C-31.33 13.35 -31.66 11.7 -32 10 C-31.030625 9.360625 -30.06125 8.72125 -29.0625 8.0625 C-26.23963731 6.3034741 -26.23963731 6.3034741 -25 5 C-23.14630389 4.91262355 -21.28932459 4.89301847 -19.43359375 4.90234375 C-18.30888672 4.90556641 -17.18417969 4.90878906 -16.02539062 4.91210938 C-14.84138672 4.92048828 -13.65738281 4.92886719 -12.4375 4.9375 C-11.24962891 4.94201172 -10.06175781 4.94652344 -8.83789062 4.95117188 C-5.89187774 4.96300325 -2.94596319 4.97948713 0 5 C0 3.35 0 1.7 0 0 Z " fill="#F4F4F4" transform="translate(79,55)"/>
<path d="M0 0 C4.29 0 8.58 0 13 0 C13.556875 1.52625 14.11375 3.0525 14.6875 4.625 C17.41849275 11.43324953 21.06856745 15.59379297 27 20 C25.625 21.5 25.625 21.5 24 23 C23.34 23 22.68 23 22 23 C21.67 25.31 21.34 27.62 21 30 C12.13483469 25.75210829 5.34724505 18.30181783 2 9 C1.18592275 6.00569288 0.57277332 3.05479105 0 0 Z " fill="#4E4E4F" transform="translate(0,55)"/>
<path d="M0 0 C1.77329931 2.65994896 2.68826571 4.72116341 3.75 7.6875 C7.83725384 18.01082129 14.6597848 24.66510376 24.6875 29.3125 C27.7582668 30.59287162 30.6804817 31.57167506 34 32 C34 32.33 34 32.66 34 33 C22.78 33 11.56 33 0 33 C0 22.11 0 11.22 0 0 Z " fill="#F5F5F5" transform="translate(0,57)"/>
<path d="M0 0 C1.97198309 1.90938045 3.39302693 3.73133214 5 6 C5 6.99 5 7.98 5 9 C-5.56 9 -16.12 9 -27 9 C-24.79629322 2.38887967 -24.2684476 1.68791332 -19 -2 C-12.48721034 -4.104743 -5.71493288 -3.89654515 0 0 Z " fill="#4E4E4F" transform="translate(51,36)"/>
<path d="M0 0 C0.33 0 0.66 0 1 0 C1.02692484 2.29160319 1.04636124 4.58329546 1.0625 6.875 C1.07410156 8.15117188 1.08570312 9.42734375 1.09765625 10.7421875 C1 14 1 14 0 16 C-1.32 16 -2.64 16 -4 16 C-3.33333333 14 -2.66666667 12 -2 10 C-1.96125079 8.33378384 -1.9549714 6.66605828 -2 5 C-1.67 5 -1.34 5 -1 5 C-0.67 3.35 -0.34 1.7 0 0 Z " fill="#B83033" transform="translate(78,43)"/>
<path d="M0 0 C1.58294782 -0.05437607 3.16644256 -0.09296271 4.75 -0.125 C5.63171875 -0.14820312 6.5134375 -0.17140625 7.421875 -0.1953125 C10.1135858 0.00860498 11.69904974 0.63448279 14 2 C14 2.66 14 3.32 14 4 C9.13103697 3.40380045 4.67209049 2.43023178 0 1 C0 0.67 0 0.34 0 0 Z " fill="#BC4246" transform="translate(45,22)"/>
<path d="M0 0 C2.45823172 3.68734758 3.01242616 6.69699971 4 11 C3.01 10.67 2.02 10.34 1 10 C0.67 10.66 0.34 11.32 0 12 C0 8.04 0 4.08 0 0 Z " fill="#E7E7E7" transform="translate(0,57)"/>
<path d="M0 0 C1.875 0.25 1.875 0.25 4 1 C5.25 3.0625 5.25 3.0625 6 5 C3 5 3 5 1.3125 3.625 C0 2 0 2 0 0 Z " fill="#F0EAE8" transform="translate(65,17)"/>
<path d="M0 0 C4 0 4 0 5.75 1.5 C6.1625 1.995 6.575 2.49 7 3 C6.34 4.32 5.68 5.64 5 7 C3.35 4.69 1.7 2.38 0 0 Z " fill="#F1E6E7" transform="translate(0,0)"/>
<path d="M0 0 C0.99 0.33 1.98 0.66 3 1 C1.02579865 3.52259061 0.03254358 3.9929808 -3.1875 4.6875 C-4.5796875 4.8421875 -4.5796875 4.8421875 -6 5 C-5.195625 4.360625 -4.39125 3.72125 -3.5625 3.0625 C-1.7249496 1.59396498 -1.7249496 1.59396498 0 0 Z " fill="#F4ECE9" transform="translate(53,61)"/>
</svg>
