<svg xmlns="http://www.w3.org/2000/svg" viewBox="0 0 1200 900" role="img" aria-labelledby="title desc">
  <title id="title">Conveyor stringer illustration</title>
  <desc id="desc">A technical illustration of a fabricated conveyor stringer side member.</desc>
  <defs>
    <linearGradient id="bg" x1="0" x2="1" y1="0" y2="1">
      <stop offset="0" stop-color="#f7f4ef"/>
      <stop offset="1" stop-color="#ecdfd8"/>
    </linearGradient>
    <linearGradient id="steel" x1="0" x2="1">
      <stop offset="0" stop-color="#5b6c78"/>
      <stop offset="1" stop-color="#bac5cd"/>
    </linearGradient>
  </defs>
  <rect width="1200" height="900" fill="url(#bg)"/>
  <circle cx="980" cy="700" r="170" fill="#ac3c3c" opacity=".09"/>
  <g transform="translate(120 260)">
    <polygon points="110 300 860 180 1000 250 250 375" fill="#4c5b67"/>
    <polygon points="110 300 110 370 250 445 250 375" fill="#6b7c88"/>
    <polygon points="250 375 1000 250 1000 320 250 445" fill="url(#steel)"/>
    <polygon points="210 250 810 155 880 190 280 290" fill="#d8e1e6"/>
    <polygon points="210 250 210 285 280 324 280 290" fill="#8e9ba4"/>
    <polygon points="280 290 880 190 880 225 280 324" fill="#b7c2c8"/>
    <g fill="#1a1a1a" opacity=".3">
      <circle cx="250" cy="286" r="20"/>
      <circle cx="380" cy="265" r="20"/>
      <circle cx="510" cy="244" r="20"/>
      <circle cx="640" cy="223" r="20"/>
      <circle cx="770" cy="202" r="20"/>
    </g>
    <g fill="#ac3c3c">
      <rect x="285" y="301" width="24" height="52" rx="10"/>
      <rect x="525" y="262" width="24" height="52" rx="10"/>
      <rect x="765" y="224" width="24" height="52" rx="10"/>
    </g>
  </g>
</svg>
