<svg xmlns="http://www.w3.org/2000/svg" viewBox="0 0 1200 900" role="img" aria-labelledby="title desc">
  <title id="title">Decking sheets illustration</title>
  <desc id="desc">A technical illustration of profiled steel decking sheets.</desc>
  <defs>
    <linearGradient id="bg" x1="0" x2="1" y1="0" y2="1">
      <stop offset="0" stop-color="#f6f3ee"/>
      <stop offset="1" stop-color="#ecdfd8"/>
    </linearGradient>
    <linearGradient id="steel" x1="0" x2="1">
      <stop offset="0" stop-color="#5f707c"/>
      <stop offset="1" stop-color="#d8dfe4"/>
    </linearGradient>
  </defs>
  <rect width="1200" height="900" fill="url(#bg)"/>
  <circle cx="980" cy="190" r="160" fill="#ac3c3c" opacity=".1"/>
  <g transform="translate(120 260)">
    <polygon points="120 320 760 220 980 330 340 440" fill="#4d5c68"/>
    <polygon points="120 320 120 400 340 510 340 440" fill="#70818d"/>
    <polygon points="340 440 980 330 980 410 340 510" fill="url(#steel)"/>
    <g fill="#d7dee3">
      <polygon points="150 270 220 258 260 278 190 291"/>
      <polygon points="260 252 340 239 380 259 300 273"/>
      <polygon points="380 234 470 220 510 240 420 255"/>
      <polygon points="510 214 610 198 650 219 550 236"/>
      <polygon points="650 192 760 174 800 196 690 214"/>
      <polygon points="800 168 920 149 960 171 840 191"/>
    </g>
    <g fill="#97a4ad">
      <polygon points="190 291 260 278 260 338 190 351"/>
      <polygon points="300 273 380 259 380 322 300 336"/>
      <polygon points="420 255 510 240 510 307 420 323"/>
      <polygon points="550 236 650 219 650 291 550 308"/>
      <polygon points="690 214 800 196 800 272 690 291"/>
      <polygon points="840 191 960 171 960 252 840 272"/>
    </g>
    <path d="M120 400L340 510" stroke="#ac3c3c" stroke-width="12" opacity=".8"/>
  </g>
</svg>
