<svg xmlns="http://www.w3.org/2000/svg" viewBox="0 0 1200 900" role="img" aria-labelledby="title desc">
  <title id="title">Perforated sheets illustration</title>
  <desc id="desc">A technical illustration of perforated steel sheets.</desc>
  <defs>
    <linearGradient id="bg" x1="0" x2="1" y1="0" y2="1">
      <stop offset="0" stop-color="#f7f4ef"/>
      <stop offset="1" stop-color="#eddfd8"/>
    </linearGradient>
    <linearGradient id="steel" x1="0" x2="1">
      <stop offset="0" stop-color="#667785"/>
      <stop offset="1" stop-color="#d5dce1"/>
    </linearGradient>
  </defs>
  <rect width="1200" height="900" fill="url(#bg)"/>
  <circle cx="270" cy="170" r="140" fill="#ac3c3c" opacity=".11"/>
  <g transform="translate(180 200)">
    <polygon points="120 210 760 100 940 230 300 345" fill="url(#steel)"/>
    <polygon points="120 210 120 390 300 505 300 345" fill="#71828f"/>
    <polygon points="300 345 940 230 940 410 300 505" fill="#bcc7ce"/>
    <g fill="#1a1a1a" opacity=".28">
      <circle cx="250" cy="212" r="15"/><circle cx="330" cy="198" r="15"/><circle cx="410" cy="184" r="15"/><circle cx="490" cy="170" r="15"/><circle cx="570" cy="156" r="15"/><circle cx="650" cy="142" r="15"/><circle cx="730" cy="128" r="15"/>
      <circle cx="285" cy="278" r="15"/><circle cx="365" cy="264" r="15"/><circle cx="445" cy="250" r="15"/><circle cx="525" cy="236" r="15"/><circle cx="605" cy="222" r="15"/><circle cx="685" cy="208" r="15"/><circle cx="765" cy="194" r="15"/>
      <circle cx="322" cy="344" r="15"/><circle cx="402" cy="330" r="15"/><circle cx="482" cy="316" r="15"/><circle cx="562" cy="302" r="15"/><circle cx="642" cy="288" r="15"/><circle cx="722" cy="274" r="15"/><circle cx="802" cy="260" r="15"/>
      <circle cx="358" cy="410" r="15"/><circle cx="438" cy="396" r="15"/><circle cx="518" cy="382" r="15"/><circle cx="598" cy="368" r="15"/><circle cx="678" cy="354" r="15"/><circle cx="758" cy="340" r="15"/><circle cx="838" cy="326" r="15"/>
    </g>
    <path d="M120 390L300 505" stroke="#ac3c3c" stroke-width="12" opacity=".8"/>
  </g>
</svg>
