<svg xmlns="http://www.w3.org/2000/svg" viewBox="0 0 1200 900" role="img" aria-labelledby="title desc">
  <title id="title">Corrugated sheets illustration</title>
  <desc id="desc">A technical illustration of corrugated metal sheets.</desc>
  <defs>
    <linearGradient id="bg" x1="0" x2="1" y1="0" y2="1">
      <stop offset="0" stop-color="#f7f5f0"/>
      <stop offset="1" stop-color="#eadfd8"/>
    </linearGradient>
  </defs>
  <rect width="1200" height="900" fill="url(#bg)"/>
  <circle cx="240" cy="210" r="150" fill="#ac3c3c" opacity=".1"/>
  <g transform="translate(110 250)">
    <polygon points="140 360 760 250 980 360 360 470" fill="#54636f"/>
    <polygon points="140 360 140 425 360 535 360 470" fill="#73828e"/>
    <polygon points="360 470 980 360 980 425 360 535" fill="#c7d0d5"/>
    <g fill="#dce3e7">
      <path d="M170 330L250 316L320 344L240 359Z"/>
      <path d="M250 316L330 302L400 330L320 344Z"/>
      <path d="M330 302L410 288L480 316L400 330Z"/>
      <path d="M410 288L490 274L560 302L480 316Z"/>
      <path d="M490 274L570 260L640 288L560 302Z"/>
      <path d="M570 260L650 246L720 274L640 288Z"/>
      <path d="M650 246L730 232L800 260L720 274Z"/>
      <path d="M730 232L810 218L880 246L800 260Z"/>
      <path d="M810 218L890 204L960 232L880 246Z"/>
    </g>
    <g fill="#aab6be">
      <path d="M240 359L320 344L320 403L240 418Z"/>
      <path d="M320 344L400 330L400 390L320 403Z"/>
      <path d="M400 330L480 316L480 377L400 390Z"/>
      <path d="M480 316L560 302L560 364L480 377Z"/>
      <path d="M560 302L640 288L640 351L560 364Z"/>
      <path d="M640 288L720 274L720 338L640 351Z"/>
      <path d="M720 274L800 260L800 325L720 338Z"/>
      <path d="M800 260L880 246L880 312L800 325Z"/>
      <path d="M880 246L960 232L960 299L880 312Z"/>
    </g>
    <path d="M140 425L360 535" stroke="#ac3c3c" stroke-width="12" opacity=".8"/>
  </g>
</svg>
