<svg xmlns="http://www.w3.org/2000/svg" viewBox="0 0 1200 900" role="img" aria-labelledby="title desc">
  <title id="title">Steel pallets illustration</title>
  <desc id="desc">A technical illustration of heavy-duty steel pallets.</desc>
  <defs>
    <linearGradient id="bg" x1="0" x2="1" y1="0" y2="1">
      <stop offset="0" stop-color="#f7f5f1"/>
      <stop offset="1" stop-color="#ece0d9"/>
    </linearGradient>
    <linearGradient id="steel" x1="0" x2="1">
      <stop offset="0" stop-color="#5f707d"/>
      <stop offset="1" stop-color="#cad2d7"/>
    </linearGradient>
  </defs>
  <rect width="1200" height="900" fill="url(#bg)"/>
  <circle cx="980" cy="690" r="180" fill="#ac3c3c" opacity=".09"/>
  <g transform="translate(180 220)">
    <polygon points="140 320 640 230 880 360 380 455" fill="#495863"/>
    <polygon points="140 320 140 405 380 535 380 455" fill="#70808c"/>
    <polygon points="380 455 880 360 880 445 380 535" fill="#c0c8cd"/>
    <g fill="#dbe2e7">
      <polygon points="190 290 330 265 410 307 270 333"/>
      <polygon points="350 261 490 236 570 278 430 304"/>
      <polygon points="510 232 650 207 730 249 590 275"/>
    </g>
    <g fill="#87959f">
      <polygon points="270 333 410 307 410 360 270 387"/>
      <polygon points="430 304 570 278 570 332 430 358"/>
      <polygon points="590 275 730 249 730 304 590 329"/>
    </g>
    <g fill="#566672">
      <rect x="240" y="383" width="70" height="95" rx="10"/>
      <rect x="448" y="344" width="70" height="105" rx="10"/>
      <rect x="656" y="304" width="70" height="115" rx="10"/>
    </g>
    <g fill="#ac3c3c">
      <rect x="170" y="350" width="580" height="18" rx="9" transform="rotate(-10 170 350)"/>
      <rect x="190" y="442" width="580" height="18" rx="9" transform="rotate(-10 190 442)" opacity=".8"/>
    </g>
  </g>
</svg>
