<svg xmlns="http://www.w3.org/2000/svg" viewBox="0 0 1200 900" role="img" aria-labelledby="title desc">
  <title id="title">Industrial gutter illustration</title>
  <desc id="desc">A technical illustration of fabricated steel gutters with support brackets.</desc>
  <defs>
    <linearGradient id="bg" x1="0" x2="1" y1="0" y2="1">
      <stop offset="0" stop-color="#f7f5f1"/>
      <stop offset="1" stop-color="#eaded8"/>
    </linearGradient>
    <linearGradient id="steel" x1="0" x2="1">
      <stop offset="0" stop-color="#5f6f7d"/>
      <stop offset="1" stop-color="#b8c3cb"/>
    </linearGradient>
  </defs>
  <rect width="1200" height="900" fill="url(#bg)"/>
  <circle cx="920" cy="180" r="170" fill="#ac3c3c" opacity=".1"/>
  <circle cx="250" cy="740" r="220" fill="#1a1a1a" opacity=".05"/>
  <g opacity=".12" stroke="#ac3c3c">
    <path d="M0 720H1200M0 650H1200M0 580H1200"/>
  </g>
  <g transform="translate(170 290)">
    <polygon points="60 120 700 30 820 100 170 195" fill="#41505d"/>
    <polygon points="60 120 60 185 170 255 170 195" fill="#70818e"/>
    <polygon points="170 195 820 100 820 170 170 255" fill="url(#steel)"/>
    <polygon points="180 100 720 25 730 65 190 145" fill="#d9e2e8" opacity=".8"/>
    <g fill="#ac3c3c">
      <rect x="120" y="200" width="18" height="110" rx="8"/>
      <rect x="300" y="175" width="18" height="120" rx="8"/>
      <rect x="480" y="150" width="18" height="125" rx="8"/>
      <rect x="660" y="125" width="18" height="130" rx="8"/>
    </g>
    <g fill="#556572">
      <polygon points="106 248 160 240 160 268 106 280"/>
      <polygon points="286 222 340 214 340 242 286 254"/>
      <polygon points="466 197 520 189 520 217 466 229"/>
      <polygon points="646 171 700 163 700 191 646 203"/>
    </g>
  </g>
</svg>
