<svg xmlns="http://www.w3.org/2000/svg" viewBox="0 0 1200 900" role="img" aria-labelledby="title desc">
  <title id="title">Base plates illustration</title>
  <desc id="desc">A technical illustration of steel base plates with hole patterns and stiffeners.</desc>
  <defs>
    <linearGradient id="bg" x1="0" x2="1" y1="0" y2="1">
      <stop offset="0" stop-color="#f7f5f1"/>
      <stop offset="1" stop-color="#ece0da"/>
    </linearGradient>
    <linearGradient id="plate" x1="0" x2="1">
      <stop offset="0" stop-color="#708190"/>
      <stop offset="1" stop-color="#c6cfd5"/>
    </linearGradient>
  </defs>
  <rect width="1200" height="900" fill="url(#bg)"/>
  <circle cx="1010" cy="180" r="160" fill="#ac3c3c" opacity=".1"/>
  <circle cx="160" cy="760" r="210" fill="#1a1a1a" opacity=".04"/>
  <g transform="translate(180 220)">
    <polygon points="100 390 680 280 930 410 350 520" fill="#52616e"/>
    <polygon points="100 390 100 470 350 600 350 520" fill="#738592"/>
    <polygon points="350 520 930 410 930 490 350 600" fill="url(#plate)"/>
    <polygon points="340 220 640 160 780 230 480 292" fill="#dbe2e7"/>
    <polygon points="340 220 340 300 480 372 480 292" fill="#8b99a5"/>
    <polygon points="480 292 780 230 780 310 480 372" fill="#9faab4"/>
    <g fill="#1a1a1a" opacity=".35">
      <circle cx="260" cy="430" r="24"/>
      <circle cx="430" cy="396" r="24"/>
      <circle cx="620" cy="360" r="24"/>
      <circle cx="790" cy="328" r="24"/>
      <circle cx="360" cy="538" r="24"/>
      <circle cx="530" cy="506" r="24"/>
      <circle cx="700" cy="474" r="24"/>
      <circle cx="870" cy="442" r="24"/>
    </g>
    <g fill="#ac3c3c">
      <rect x="468" y="240" width="18" height="72" rx="9"/>
      <rect x="610" y="214" width="18" height="72" rx="9"/>
      <rect x="694" y="199" width="18" height="72" rx="9"/>
    </g>
  </g>
</svg>
