<svg xmlns="http://www.w3.org/2000/svg" viewBox="0 0 1200 900" role="img" aria-labelledby="title desc">
  <title id="title">Foundation bolts illustration</title>
  <desc id="desc">A technical illustration of custom anchor and foundation bolts.</desc>
  <defs>
    <linearGradient id="bg" x1="0" x2="1" y1="0" y2="1">
      <stop offset="0" stop-color="#f6f3ee"/>
      <stop offset="1" stop-color="#efe1db"/>
    </linearGradient>
    <linearGradient id="steel" x1="0" x2="1">
      <stop offset="0" stop-color="#5d6d7b"/>
      <stop offset="1" stop-color="#d2d8de"/>
    </linearGradient>
  </defs>
  <rect width="1200" height="900" fill="url(#bg)"/>
  <circle cx="210" cy="190" r="150" fill="#1a1a1a" opacity=".05"/>
  <circle cx="930" cy="700" r="190" fill="#ac3c3c" opacity=".1"/>
  <g opacity=".1" stroke="#ac3c3c">
    <path d="M120 740H1080"/>
    <path d="M120 680H1080"/>
  </g>
  <g transform="translate(190 150)">
    <g transform="rotate(-12 180 370)">
      <rect x="120" y="80" width="46" height="500" rx="22" fill="url(#steel)"/>
      <rect x="100" y="80" width="86" height="48" rx="18" fill="#465562"/>
      <path d="M120 530C120 620 50 635 50 700H96C96 657 154 648 166 585V530Z" fill="#556572"/>
      <g stroke="#8593a0" stroke-width="6">
        <path d="M126 150H160"/>
        <path d="M126 190H160"/>
        <path d="M126 230H160"/>
        <path d="M126 270H160"/>
        <path d="M126 310H160"/>
      </g>
    </g>
    <g transform="translate(250 10) rotate(8 180 370)">
      <rect x="120" y="80" width="46" height="500" rx="22" fill="url(#steel)"/>
      <rect x="100" y="80" width="86" height="48" rx="18" fill="#465562"/>
      <path d="M166 548C230 548 270 592 270 665H224C224 627 195 595 166 592Z" fill="#556572"/>
      <g stroke="#8593a0" stroke-width="6">
        <path d="M126 150H160"/>
        <path d="M126 190H160"/>
        <path d="M126 230H160"/>
        <path d="M126 270H160"/>
        <path d="M126 310H160"/>
      </g>
    </g>
    <g transform="translate(520 30) rotate(-4 180 370)">
      <rect x="120" y="80" width="46" height="500" rx="22" fill="url(#steel)"/>
      <rect x="100" y="80" width="86" height="48" rx="18" fill="#465562"/>
      <path d="M120 540C120 615 80 650 30 680V730C130 690 166 626 166 550Z" fill="#ac3c3c"/>
      <g stroke="#8593a0" stroke-width="6">
        <path d="M126 150H160"/>
        <path d="M126 190H160"/>
        <path d="M126 230H160"/>
        <path d="M126 270H160"/>
        <path d="M126 310H160"/>
      </g>
    </g>
  </g>
</svg>
